<svg viewBox="0 0 220 220" xmlns="http://www.w3.org/2000/svg">
    <defs>
        <linearGradient id="g1" x1="33%" y1="0%" x2="100%" y2="100%">
            <stop offset="20%" stop-color="#ff1744" />
            <stop offset="80%" stop-color="#ff1744" />
        </linearGradient>
        <linearGradient id="g2" x1="33%" y1="0%" x2="100%" y2="100%">
            <stop offset="20%" stop-color="#ff1744" />
            <stop offset="80%" stop-color="#d81f3c" />
        </linearGradient>
        <linearGradient id="g3" x1="33%" y1="0%" x2="100%" y2="100%">
            <stop offset="20%" stop-color="#b32333" />
            <stop offset="80%" stop-color="#d81f3c" />
        </linearGradient>
        <linearGradient id="g4" x1="33%" y1="0%" x2="100%" y2="100%">
            <stop offset="20%" stop-color="#b32333" />
            <stop offset="80%" stop-color="#8f222b" />
        </linearGradient>
        <linearGradient id="g5" x1="33%" y1="0%" x2="100%" y2="100%">
            <stop offset="20%" stop-color="#6c2024" />
            <stop offset="80%" stop-color="#8f222b" />
        </linearGradient>
        <linearGradient id="g6" x1="33%" y1="0%" x2="100%" y2="100%">
            <stop offset="20%" stop-color="#6c2024" />
            <stop offset="80%" stop-color="#4b1c1c" />
        </linearGradient>
        <linearGradient id="g7" x1="33%" y1="0%" x2="100%" y2="100%">
            <stop offset="20%" stop-color="#2c1514" />
            <stop offset="80%" stop-color="#4b1c1c" />
        </linearGradient>
        <linearGradient id="g8" x1="33%" y1="0%" x2="100%" y2="100%">
            <stop offset="20%" stop-color="#2c1514" />
            <stop offset="80%" stop-color="#0a0a0a" />
        </linearGradient>
    </defs>
    <g transform="translate(220, 0)">
        <path
            d="M0 216.3C-24.9 200.5 -49.8 184.7 -70.8 170.9C-91.8 157.1 -109 145.2 -132.2 132.2C-155.5 119.2 -184.8 105 -199.9 82.8C-214.9 60.6 -215.6 30.3 -216.3 0L0 0Z"
            fill="url(#g8)"></path>
        <path
            d="M0 189.3C-21.8 175.5 -43.6 161.6 -61.9 149.6C-80.3 137.5 -95.4 127.1 -115.7 115.7C-136 104.3 -161.7 91.9 -174.9 72.4C-188 53 -188.7 26.5 -189.3 0L0 0Z"
            fill="url(#g7)"></path>
        <path
            d="M0 162.2C-18.7 150.4 -37.3 138.6 -53.1 128.2C-68.9 117.8 -81.7 108.9 -99.2 99.2C-116.6 89.4 -138.6 78.8 -149.9 62.1C-161.2 45.4 -161.7 22.7 -162.2 0L0 0Z"
            fill="url(#g6)"></path>
        <path
            d="M0 135.2C-15.6 125.3 -31.1 115.5 -44.2 106.8C-57.4 98.2 -68.1 90.8 -82.6 82.6C-97.2 74.5 -115.5 65.6 -124.9 51.7C-134.3 37.8 -134.8 18.9 -135.2 0L0 0Z"
            fill="url(#g5)"></path>
        <path
            d="M0 108.2C-12.4 100.3 -24.9 92.4 -35.4 85.5C-45.9 78.5 -54.5 72.6 -66.1 66.1C-77.7 59.6 -92.4 52.5 -99.9 41.4C-107.4 30.3 -107.8 15.1 -108.2 0L0 0Z"
            fill="url(#g4)"></path>
        <path
            d="M0 81.1C-9.3 75.2 -18.7 69.3 -26.5 64.1C-34.4 58.9 -40.9 54.5 -49.6 49.6C-58.3 44.7 -69.3 39.4 -74.9 31C-80.6 22.7 -80.9 11.4 -81.1 0L0 0Z"
            fill="url(#g3)"></path>
        <path
            d="M0 54.1C-6.2 50.1 -12.4 46.2 -17.7 42.7C-23 39.3 -27.2 36.3 -33.1 33.1C-38.9 29.8 -46.2 26.3 -50 20.7C-53.7 15.1 -53.9 7.6 -54.1 0L0 0Z"
            fill="url(#g2)"></path>
        <path
            d="M0 27C-3.1 25.1 -6.2 23.1 -8.8 21.4C-11.5 19.6 -13.6 18.2 -16.5 16.5C-19.4 14.9 -23.1 13.1 -25 10.3C-26.9 7.6 -27 3.8 -27 0L0 0Z"
            fill="url(#g1)"></path>
    </g>
</svg>